<svg fill="#5181b8" fill-rule="evenodd" height="20"  width="20" xmlns="http://www.w3.org/2000/svg"><path d = "M 5.5 11 a 0.75 0.75 0 0 1 0.75 0.75 v 1 a 0.75 0.75 0 0 1 -0.75 0.75 a 0.75 0.75 0 0 1 -0.75 -0.75 v -1 A 0.75 0.75 0 0 1 5.5 11 Z m 3.75 -0.25 a 0.75 0.75 0 0 0 -1.5 0 v 2.75 a 0.75 0.75 0 0 0 1.5 0 v -2.75 Z M 14.5 10 a 0.75 0.75 0 0 1 0.75 0.76 v 2.8 a 0.75 0.75 0 0 1 -1.5 -0.01 v -2.8 a 0.75 0.75 0 0 1 0.75 -0.75 Z m -2.25 -0.74 a 0.75 0.75 0 0 0 -1.5 0 v 4.5 a 0.75 0.75 0 0 0 1.5 0 v -4.5 ZM 7.92 2 c -0.88 0 -1.6 0 -2.17 0.05 a 4.1 4.1 0 0 0 -1.57 0.39 a 4 4 0 0 0 -1.74 1.74 a 4.1 4.1 0 0 0 -0.4 1.57 C 2 6.33 2 7.04 2 7.92 v 4.16 c 0 0.88 0 1.6 0.05 2.17 c 0.04 0.58 0.15 1.1 0.39 1.57 a 4 4 0 0 0 1.74 1.74 c 0.48 0.24 0.99 0.35 1.57 0.4 c 0.58 0.04 1.29 0.04 2.17 0.04 h 4.16 c 0.88 0 1.6 0 2.17 -0.05 a 4.1 4.1 0 0 0 1.57 -0.39 a 4 4 0 0 0 1.74 -1.74 c 0.24 -0.47 0.35 -0.99 0.4 -1.57 c 0.04 -0.58 0.04 -1.29 0.04 -2.17 V 7.92 c 0 -0.88 0 -1.6 -0.05 -2.17 a 4.1 4.1 0 0 0 -0.39 -1.57 a 4 4 0 0 0 -1.74 -1.74 a 4.1 4.1 0 0 0 -1.57 -0.4 C 13.67 2 12.96 2 12.08 2 H 7.92 Z M 4.87 3.77 c 0.22 -0.11 0.51 -0.19 1 -0.23 c 0.51 -0.04 1.16 -0.04 2.08 -0.04 h 4.1 c 0.92 0 1.57 0 2.07 0.04 c 0.5 0.04 0.8 0.12 1.02 0.23 a 2.5 2.5 0 0 1 1.09 1.1 c 0.11 0.22 0.19 0.51 0.23 1 c 0.03 0.42 0.04 0.93 0.04 1.6 c -0.38 -0.28 -0.85 -0.6 -1.35 -0.9 c -1.04 -0.65 -2.4 -1.32 -3.65 -1.32 c -1.43 0 -2.53 0.64 -3.54 1.23 l -0.42 0.25 A 8.5 8.5 0 0 1 3.5 7.99 v -0.04 c 0 -0.92 0 -1.57 0.04 -2.07 c 0.04 -0.5 0.12 -0.8 0.23 -1.01 a 2.5 2.5 0 0 1 1.1 -1.1 Z M 3.5 9.5 v 2.55 c 0 0.92 0 1.57 0.04 2.07 c 0.04 0.5 0.12 0.8 0.23 1.02 a 2.5 2.5 0 0 0 1.1 1.09 c 0.22 0.11 0.51 0.19 1 0.23 c 0.51 0.04 1.16 0.04 2.08 0.04 h 4.1 c 0.92 0 1.57 0 2.07 -0.04 c 0.5 -0.04 0.8 -0.12 1.02 -0.23 a 2.5 2.5 0 0 0 1.09 -1.1 c 0.11 -0.22 0.19 -0.51 0.23 -1 c 0.04 -0.51 0.04 -1.16 0.04 -2.08 V 9.36 a 30.58 30.58 0 0 1 -0.17 -0.13 c -0.43 -0.33 -1.14 -0.88 -1.96 -1.39 a 6.19 6.19 0 0 0 -2.87 -1.09 c -1 0 -1.73 0.42 -2.77 1.02 a 70.79 70.79 0 0 1 -0.45 0.26 A 9.97 9.97 0 0 1 3.5 9.5 Z"/></svg>
