<svg fill="#5181b8" fill-rule="evenodd" height="20"  width="20" xmlns="http://www.w3.org/2000/svg"><path d = "M 7.13 2 c -1.61 0 -2.34 0.14 -3.08 0.53 c -0.65 0.35 -1.17 0.87 -1.52 1.52 c -0.4 0.74 -0.53 1.47 -0.53 3.08 v 5.74 c 0 1.61 0.14 2.34 0.53 3.08 c 0.35 0.65 0.87 1.17 1.52 1.52 c 0.74 0.4 1.47 0.53 3.08 0.53 h 5.74 c 1.61 0 2.34 -0.14 3.08 -0.53 a 3.64 3.64 0 0 0 1.52 -1.52 c 0.4 -0.74 0.53 -1.47 0.53 -3.08 V 7.13 c 0 -1.61 -0.14 -2.34 -0.53 -3.08 a 3.64 3.64 0 0 0 -1.52 -1.52 c -0.74 -0.4 -1.47 -0.53 -3.08 -0.53 Z M 4.75 3.86 c 0.42 -0.22 0.85 -0.36 2.38 -0.36 h 5.74 c 1.53 0 1.96 0.14 2.38 0.36 c 0.38 0.2 0.69 0.5 0.9 0.9 c 0.21 0.4 0.35 0.84 0.35 2.37 v 5.74 c 0 1.53 -0.14 1.96 -0.36 2.38 c -0.2 0.38 -0.5 0.69 -0.9 0.9 c -0.34 0.18 -0.7 0.3 -1.74 0.34 v -2.74 a 0.75 0.75 0 0 0 -1.5 0 v 2.75 H 8 v -2.75 a 0.75 0.75 0 0 0 -1.5 0 v 2.74 c -1.03 -0.03 -1.4 -0.16 -1.75 -0.35 c -0.38 -0.2 -0.69 -0.5 -0.9 -0.9 c -0.21 -0.4 -0.35 -0.84 -0.35 -2.37 V 7.13 c 0 -1.53 0.14 -1.96 0.36 -2.38 c 0.2 -0.38 0.5 -0.69 0.9 -0.9 Z m 1 2.14 a 0.75 0.75 0 0 0 0 1.5 h 8.5 a 0.75 0.75 0 0 0 0 -1.5 Z m 0 3.5 a 0.75 0.75 0 0 0 0 1.5 h 8.5 a 0.75 0.75 0 0 0 0 -1.5 Z"/></svg>
