<svg fill="#5181b8" fill-rule="evenodd" height="20"  width="20" xmlns="http://www.w3.org/2000/svg"><path d = "M 11.84 2 H 8.16 c -0.93 0 -1.67 0 -2.26 0.05 c -0.62 0.05 -1.15 0.15 -1.63 0.4 a 4.15 4.15 0 0 0 -1.82 1.82 a 4.26 4.26 0 0 0 -0.4 1.63 C 2 6.5 2 7.23 2 8.16 v 3.68 c 0 0.93 0 1.67 0.05 2.26 c 0.05 0.62 0.15 1.15 0.4 1.63 c 0.4 0.78 1.04 1.42 1.82 1.82 c 0.48 0.25 1.01 0.35 1.63 0.4 c 0.6 0.05 1.33 0.05 2.26 0.05 h 3.68 c 0.93 0 1.67 0 2.26 -0.05 a 4.26 4.26 0 0 0 1.63 -0.4 a 4.15 4.15 0 0 0 1.82 -1.82 c 0.25 -0.48 0.35 -1.01 0.4 -1.63 c 0.05 -0.6 0.05 -1.33 0.05 -2.26 V 8.16 c 0 -0.93 0 -1.67 -0.05 -2.26 a 4.26 4.26 0 0 0 -0.4 -1.63 a 4.15 4.15 0 0 0 -1.82 -1.82 a 4.26 4.26 0 0 0 -1.63 -0.4 C 13.5 2 12.77 2 11.84 2 Z m -6.9 1.79 c 0.25 -0.12 0.56 -0.2 1.08 -0.25 c 0.53 -0.04 1.2 -0.04 2.17 -0.04 h 3.62 c 0.96 0 1.64 0 2.17 0.04 c 0.52 0.05 0.83 0.13 1.07 0.25 c 0.5 0.25 0.9 0.66 1.16 1.16 c 0.12 0.24 0.2 0.55 0.25 1.07 l 0.02 0.48 H 3.52 l 0.02 -0.48 c 0.05 -0.52 0.13 -0.83 0.25 -1.07 c 0.25 -0.5 0.66 -0.9 1.16 -1.16 Z M 3.5 8 v 3.81 c 0 0.96 0 1.64 0.04 2.17 c 0.05 0.52 0.13 0.83 0.25 1.07 c 0.25 0.5 0.66 0.9 1.16 1.16 c 0.24 0.12 0.55 0.2 1.07 0.25 c 0.53 0.04 1.2 0.04 2.17 0.04 h 3.62 c 0.96 0 1.64 0 2.17 -0.04 a 2.8 2.8 0 0 0 1.07 -0.25 c 0.5 -0.25 0.9 -0.66 1.16 -1.16 c 0.12 -0.24 0.2 -0.55 0.25 -1.07 c 0.04 -0.53 0.04 -1.2 0.04 -2.17 V 8.19 V 8 Z"/></svg>
