<svg fill="#5181b8" fill-rule="evenodd" height="20"  width="20" xmlns="http://www.w3.org/2000/svg"><path d = "M 10.76 3.3 a 0.94 0.94 0 0 1 1.86 0.2 l -0.37 4.44 c -0.03 0.34 0.18 0.66 0.51 0.77 h 0.02 a 2.8 2.8 0 0 1 0.46 0.22 c 0.3 0.15 0.7 0.4 1.08 0.75 a 0.75 0.75 0 0 0 1.02 -1.1 a 6.49 6.49 0 0 0 -1.55 -1.06 l 0.33 -3.89 a 2.44 2.44 0 0 0 -4.84 -0.53 l -0.1 0.65 l -0.02 -0.06 a 2.46 2.46 0 0 0 -4.78 0.98 l 0.34 4.49 a 4.63 4.63 0 0 0 -1.46 4.49 c 0.55 2.7 3.18 5.08 7.23 4.85 h 0.05 a 0.75 0.75 0 0 0 -0.09 -1.5 h -0.04 c -3.37 0.2 -5.3 -1.73 -5.67 -3.65 a 3.12 3.12 0 0 1 1.18 -3.23 a 2.95 2.95 0 0 1 2.39 -0.4 c 0.57 0.21 0.83 0.7 0.82 1.19 a 1 1 0 0 1 -0.83 1 c -0.32 0.07 -0.49 0.09 -0.55 0.09 a 0.75 0.75 0 0 0 0 1.5 c 0.24 0 0.56 -0.06 0.86 -0.12 a 2.5 2.5 0 0 0 2.02 -2.44 a 2.7 2.7 0 0 0 -2 -2.68 c -0.3 -0.08 -1.3 -0.3 -2.47 0.09 l -0.29 -3.8 a 0.96 0.96 0 0 1 1.87 -0.38 l 0.72 2.11 v 0.02 a 5.6 5.6 0 0 0 0.25 0.56 c 0.04 0.07 0.15 0.21 0.34 0.3 c 0.3 0.15 0.65 0.11 0.92 -0.08 c 0.17 -0.13 0.25 -0.3 0.28 -0.37 a 5.62 5.62 0 0 0 0.12 -0.6 l 0.01 -0.02 Z M 16.31 18 l 1.38 -0.8 l 0.04 -0.03 c 0.22 -0.12 0.47 -0.26 0.66 -0.4 c 0.2 -0.15 0.56 -0.42 0.77 -0.9 c 0.25 -0.55 0.25 -1.19 0 -1.75 a 2.2 2.2 0 0 0 -0.77 -0.9 l -0.66 -0.4 l -0.04 -0.02 l -1.38 -0.8 l -0.04 -0.02 c -0.22 -0.13 -0.47 -0.27 -0.68 -0.37 a 2.2 2.2 0 0 0 -1.16 -0.22 c -0.61 0.06 -1.16 0.38 -1.52 0.87 c -0.3 0.42 -0.37 0.87 -0.39 1.12 c -0.02 0.24 -0.02 0.52 -0.02 0.78 V 15.84 c 0 0.26 0 0.54 0.02 0.78 s 0.09 0.7 0.4 1.11 c 0.35 0.5 0.9 0.81 1.5 0.88 c 0.52 0.05 0.94 -0.12 1.17 -0.22 c 0.21 -0.1 0.46 -0.25 0.68 -0.37 Z m 0.63 -3.9 c 0.51 0.3 0.77 0.44 0.85 0.63 c 0.08 0.17 0.08 0.36 0 0.53 c -0.08 0.2 -0.34 0.34 -0.85 0.64 l -1.38 0.8 c -0.51 0.3 -0.77 0.44 -0.98 0.42 a 0.65 0.65 0 0 1 -0.46 -0.27 C 14 16.68 14 16.4 14 15.8 V 14.2 c 0 -0.59 0 -0.89 0.12 -1.06 c 0.11 -0.15 0.28 -0.24 0.46 -0.26 c 0.21 -0.02 0.47 0.13 0.98 0.42 Z"/></svg>
