<svg fill="#5181b8" fill-rule="evenodd" height="20"  width="20" xmlns="http://www.w3.org/2000/svg"><path d = "M 11.5 4 h -3 c -2.32 0 -4.25 0.43 -5.58 1.76 S 1.02 9.15 1 12 c 0 0.8 0.05 1.99 0.46 3 c 0.2 0.5 0.5 1.01 0.98 1.4 c 0.48 0.39 1.09 0.61 1.81 0.61 c 0.8 0 1.37 -0.33 1.81 -0.77 c 0.31 -0.31 0.58 -0.72 0.8 -1.07 l 0.17 -0.24 c 0.28 -0.42 0.55 -0.76 0.91 -1 c 0.35 -0.24 0.82 -0.42 1.56 -0.42 h 1 c 0.74 0 1.21 0.18 1.56 0.42 c 0.36 0.24 0.63 0.58 0.91 1 l 0.16 0.24 c 0.23 0.35 0.5 0.76 0.8 1.07 c 0.45 0.44 1.02 0.77 1.82 0.77 a 2.8 2.8 0 0 0 1.81 -0.61 c 0.47 -0.39 0.78 -0.9 0.98 -1.4 c 0.4 -1.01 0.47 -2.2 0.46 -3 c -0.02 -2.84 -0.6 -4.9 -1.92 -6.23 C 15.75 4.43 13.82 4 11.5 4 Z m -1 8 h -1 c -1.01 0 -1.79 0.26 -2.4 0.68 c -0.6 0.4 -1 0.94 -1.31 1.4 l -0.23 0.34 c -0.21 0.32 -0.37 0.56 -0.57 0.76 a 0.95 0.95 0 0 1 -0.74 0.32 c -0.4 0 -0.67 -0.12 -0.87 -0.28 a 1.9 1.9 0 0 1 -0.53 -0.79 a 6.82 6.82 0 0 1 -0.35 -2.42 c 0.02 -2.71 0.57 -4.28 1.48 -5.19 c 0.91 -0.9 2.34 -1.32 4.52 -1.32 h 3 c 2.18 0 3.61 0.42 4.52 1.32 c 0.9 0.91 1.46 2.48 1.48 5.19 c 0 0.75 -0.06 1.7 -0.35 2.42 a 1.9 1.9 0 0 1 -0.53 0.8 c -0.2 0.15 -0.47 0.27 -0.87 0.27 a 0.95 0.95 0 0 1 -0.74 -0.32 c -0.2 -0.2 -0.36 -0.44 -0.57 -0.76 l -0.23 -0.34 c -0.3 -0.46 -0.7 -1 -1.3 -1.4 A 4.13 4.13 0 0 0 10.5 12 Z M 7.25 7.5 a 0.75 0.75 0 0 0 -1.5 0 v 0.75 H 5 a 0.75 0.75 0 0 0 0 1.5 h 0.75 v 0.75 a 0.75 0.75 0 0 0 1.5 0 v -0.75 H 8 a 0.75 0.75 0 0 0 0 -1.5 h -0.75 Z m 5.25 0.75 a 0.75 0.75 0 0 0 0 1.5 h 2 a 0.75 0.75 0 0 0 0 -1.5 Z"/></svg>
