<svg fill="#5181b8" fill-rule="evenodd" height="20"  width="20" xmlns="http://www.w3.org/2000/svg"><path d = "M 7.78 2.7 l 0.7 0.83 a 4.13 4.13 0 0 1 -0.3 5.58 l -0.3 0.3 c 0.23 0.38 0.64 0.88 1.23 1.48 c 0.53 0.53 0.99 0.9 1.35 1.14 l 0.13 0.09 l 0.3 -0.3 a 4.14 4.14 0 0 1 5.58 -0.3 l 0.83 0.7 a 3.45 3.45 0 0 1 0.34 4.9 c -0.6 0.69 -1.43 1.15 -2.29 1.28 l -0.5 0.06 c -3 0.3 -6.04 -1.16 -9.1 -4.21 c -3.05 -3.06 -4.5 -6.1 -4.22 -9.03 l 0.06 -0.51 a 3.83 3.83 0 0 1 1.3 -2.36 l 0.17 -0.13 a 3.44 3.44 0 0 1 4.72 0.48 Z m -3.91 0.79 a 2.38 2.38 0 0 0 -0.81 1.58 c -0.35 2.55 0.9 5.25 3.76 8.12 c 2.86 2.86 5.56 4.1 8.12 3.75 c 0.6 -0.05 1.17 -0.35 1.57 -0.8 c 0.72 -0.85 0.64 -2.09 -0.18 -2.77 l -0.83 -0.7 l -0.14 -0.12 a 2.64 2.64 0 0 0 -3.41 0.33 l -0.6 0.6 l -0.09 0.07 a 0.9 0.9 0 0 1 -0.86 0.14 a 7.26 7.26 0 0 1 -2.35 -1.74 A 7.23 7.23 0 0 1 6.31 9.6 a 0.9 0.9 0 0 1 0.21 -0.95 l 0.6 -0.6 l 0.13 -0.13 c 0.86 -1 0.9 -2.44 0.08 -3.42 l -0.7 -0.83 l -0.11 -0.13 c -0.7 -0.7 -1.85 -0.73 -2.65 -0.05 Z"/></svg>
