<svg fill="#5181b8" fill-rule="evenodd" height="20"  width="20" xmlns="http://www.w3.org/2000/svg"><path d = "M 10 1.5 a 8.5 8.5 0 1 1 0 17 a 8.5 8.5 0 0 1 0 -17 Z M 10 3 a 7 7 0 1 0 0 14 a 7 7 0 0 0 0 -14 Z m 3.07 9.06 c 0.3 0.28 0.3 0.76 0.02 1.06 a 4.06 4.06 0 0 1 -0.85 0.65 a 4.36 4.36 0 0 1 -2.24 0.63 a 4.36 4.36 0 0 1 -2.24 -0.63 a 4.06 4.06 0 0 1 -0.85 -0.65 a 0.75 0.75 0 0 1 1 -1.11 l 0.2 0.18 a 3.16 3.16 0 0 0 1.89 0.71 a 2.88 2.88 0 0 0 1.9 -0.71 l 0.1 -0.1 a 0.75 0.75 0 0 1 1.07 -0.03 Z M 7.62 7.25 a 1.13 1.13 0 1 1 0 2.25 a 1.13 1.13 0 0 1 0 -2.25 Z m 4.75 0 a 1.13 1.13 0 1 1 0 2.25 a 1.13 1.13 0 0 1 0 -2.25 Z"/></svg>
