<svg fill="#5181b8" fill-rule="evenodd" height="20"  width="20" xmlns="http://www.w3.org/2000/svg"><path d = "M 6.83 15.75 c 0.2 -0.23 0.53 -0.31 0.82 -0.2 c 0.81 0.3 1.7 0.45 2.6 0.45 c 3.77 0 6.75 -2.7 6.75 -6 s -2.98 -6 -6.75 -6 S 3.5 6.7 3.5 10 c 0 1.21 0.4 2.37 1.14 3.35 c 0.1 0.14 0.16 0.31 0.15 0.49 c -0.04 0.76 -0.4 1.78 -1.08 3.13 c 1.48 -0.11 2.5 -0.53 3.12 -1.22 Z M 3.24 18.5 a 1.2 1.2 0 0 1 -1.1 -1.77 A 10.77 10.77 0 0 0 3.26 14 A 7 7 0 0 1 2 10 c 0 -4.17 3.68 -7.5 8.25 -7.5 S 18.5 5.83 18.5 10 s -3.68 7.5 -8.25 7.5 c -0.92 0 -1.81 -0.13 -2.66 -0.4 c -1 0.89 -2.46 1.34 -4.35 1.4 Z"/></svg>
