<svg fill="#5181b8" fill-rule="evenodd" height="20"  width="20" xmlns="http://www.w3.org/2000/svg"><path d = "M 5.7 7.97 a 1.48 1.48 0 0 1 1.95 -1.13 c 1.25 0.45 2.39 1.15 3.35 2.03 c 0.67 0.6 0.67 1.66 0 2.26 c -0.96 0.88 -2.1 1.58 -3.34 2.03 a 1.48 1.48 0 0 1 -1.96 -1.13 a 10.49 10.49 0 0 1 0 -4.06 Z m 1.47 0.29 A 8.54 8.54 0 0 1 10 10.02 h -0.01 a 8.54 8.54 0 0 1 -2.82 1.72 a 8.99 8.99 0 0 1 0 -3.48 ZM 7.08 18 h 5.84 c 1.77 0 2.42 -0.18 3.07 -0.53 A 3.57 3.57 0 0 0 17.47 16 c 0.35 -0.65 0.53 -1.3 0.53 -3.07 V 7.08 c 0 -1.77 -0.18 -2.42 -0.53 -3.07 A 3.57 3.57 0 0 0 16 2.53 c -0.65 -0.35 -1.3 -0.53 -3.07 -0.53 H 7.08 c -1.77 0 -2.42 0.18 -3.07 0.53 c -0.64 0.34 -1.14 0.84 -1.48 1.48 c -0.35 0.65 -0.53 1.3 -0.53 3.07 v 5.84 c 0 1.77 0.18 2.42 0.53 3.07 c 0.34 0.64 0.84 1.14 1.48 1.48 c 0.65 0.35 1.3 0.53 3.07 0.53 Z m 4.04 -14.46 c -0.5 -0.04 -1.15 -0.04 -2.07 -0.04 H 7.08 c -1.66 0 -2.02 0.17 -2.36 0.35 c -0.38 0.2 -0.67 0.5 -0.87 0.87 c -0.18 0.34 -0.35 0.7 -0.35 2.36 v 5.84 c 0 1.66 0.17 2.02 0.35 2.36 c 0.2 0.38 0.5 0.67 0.87 0.87 c 0.34 0.18 0.7 0.35 2.36 0.35 h 1.97 c 0.92 0 1.57 0 2.07 -0.04 c 0.5 -0.04 0.8 -0.12 1.01 -0.23 a 2.5 2.5 0 0 0 1.1 -1.1 c 0.11 -0.22 0.19 -0.51 0.23 -1 c 0.04 -0.51 0.04 -1.16 0.04 -2.08 v -4.1 c 0 -0.92 0 -1.57 -0.04 -2.07 c -0.04 -0.5 -0.12 -0.8 -0.23 -1.01 a 2.5 2.5 0 0 0 -1.1 -1.1 a 2.65 2.65 0 0 0 -1 -0.23 Z m 4.16 12.61 c -0.23 0.12 -0.47 0.24 -1.12 0.3 a 4 4 0 0 0 0.4 -0.63 c 0.24 -0.47 0.35 -0.99 0.4 -1.57 c 0.04 -0.58 0.04 -1.28 0.04 -2.17 V 7.92 c 0 -0.88 0 -1.6 -0.05 -2.17 a 4.1 4.1 0 0 0 -0.39 -1.57 a 4 4 0 0 0 -0.4 -0.63 c 0.65 0.06 0.89 0.18 1.12 0.3 c 0.38 0.2 0.67 0.5 0.87 0.87 c 0.18 0.34 0.35 0.7 0.35 2.36 v 5.84 c 0 1.66 -0.17 2.02 -0.35 2.36 c -0.2 0.38 -0.5 0.67 -0.87 0.87 Z"/></svg>
