<svg fill="#5181b8" fill-rule="evenodd" height="20"  width="20" xmlns="http://www.w3.org/2000/svg"><path d = "M 6.84 16.44 c 0.76 0.06 1.74 0.06 3.16 0.06 c 1.42 0 2.4 0 3.16 -0.06 a 3.75 3.75 0 0 0 1.43 -0.32 a 3.5 3.5 0 0 0 1.53 -1.53 c 0.15 -0.29 0.26 -0.69 0.32 -1.43 l 0.03 -0.63 l -1.3 -1.3 c -0.3 -0.3 -0.5 -0.5 -0.67 -0.64 a 0.86 0.86 0 0 0 -0.27 -0.18 a 0.75 0.75 0 0 0 -0.46 0 a 0.86 0.86 0 0 0 -0.27 0.18 c -0.16 0.13 -0.36 0.33 -0.67 0.64 l -2.3 2.3 a 0.75 0.75 0 0 1 -1.06 0 l -0.3 -0.3 c -0.3 -0.3 -0.5 -0.5 -0.67 -0.64 a 0.86 0.86 0 0 0 -0.27 -0.18 a 0.75 0.75 0 0 0 -0.46 0 a 0.86 0.86 0 0 0 -0.27 0.18 c -0.16 0.13 -0.36 0.33 -0.67 0.64 L 4.56 15.5 c 0.25 0.24 0.53 0.45 0.85 0.6 c 0.29 0.16 0.69 0.27 1.43 0.33 Z m 9.39 -6.27 l 0.27 0.27 V 10 c 0 -1.42 0 -2.4 -0.06 -3.16 a 3.75 3.75 0 0 0 -0.32 -1.43 a 3.5 3.5 0 0 0 -1.53 -1.53 a 3.75 3.75 0 0 0 -1.43 -0.32 A 43.2 43.2 0 0 0 10 3.5 c -1.42 0 -2.4 0 -3.16 0.06 c -0.74 0.06 -1.14 0.17 -1.43 0.32 a 3.5 3.5 0 0 0 -1.53 1.53 c -0.15 0.29 -0.26 0.69 -0.32 1.43 A 43.2 43.2 0 0 0 3.5 10 c 0 1.42 0 2.4 0.06 3.16 c 0.04 0.47 0.1 0.8 0.17 1.05 l 2.04 -2.04 l 0.02 -0.02 c 0.28 -0.28 0.52 -0.52 0.74 -0.7 c 0.23 -0.2 0.47 -0.37 0.77 -0.47 c 0.46 -0.15 0.94 -0.15 1.4 0 c 0.3 0.1 0.54 0.27 0.77 0.46 c 0.16 0.14 0.34 0.3 0.53 0.5 l 1.77 -1.77 l 0.02 -0.02 c 0.28 -0.28 0.52 -0.52 0.74 -0.7 c 0.23 -0.2 0.47 -0.37 0.77 -0.47 c 0.46 -0.15 0.94 -0.15 1.4 0 c 0.3 0.1 0.54 0.27 0.77 0.46 c 0.22 0.19 0.46 0.43 0.74 0.7 Z M 2.54 4.73 C 2 5.8 2 7.2 2 10 c 0 2.8 0 4.2 0.54 5.27 a 5 5 0 0 0 2.19 2.19 C 5.8 18 7.2 18 10 18 c 2.8 0 4.2 0 5.27 -0.54 a 5 5 0 0 0 2.19 -2.19 C 18 14.2 18 12.8 18 10 c 0 -2.8 0 -4.2 -0.55 -5.27 a 5 5 0 0 0 -2.18 -2.19 C 14.2 2 12.8 2 10 2 c -2.8 0 -4.2 0 -5.27 0.54 a 5 5 0 0 0 -2.19 2.19 Z M 7.25 6 a 1.25 1.25 0 1 0 0 2.5 a 1.25 1.25 0 0 0 0 -2.5 Z"/></svg>
