<svg fill="#5181b8" fill-rule="evenodd" height="20"  width="20" xmlns="http://www.w3.org/2000/svg"><path d = "M 6.25 3.5 a 3 3 0 1 0 0 6 a 3 3 0 0 0 0 -6 Z m -1.5 3 a 1.5 1.5 0 1 0 3 0 a 1.5 1.5 0 0 0 -3 0 Z M 2.69 11.57 c 0.96 -0.55 2.22 -0.82 3.56 -0.82 s 2.6 0.27 3.56 0.82 c 0.98 0.56 1.69 1.47 1.69 2.68 c 0 0.7 -0.28 1.3 -0.78 1.71 c -0.48 0.39 -1.1 0.54 -1.72 0.54 H 3.5 c -0.61 0 -1.24 -0.15 -1.72 -0.54 c -0.5 -0.4 -0.78 -1 -0.78 -1.71 c 0 -1.21 0.71 -2.12 1.69 -2.68 Z m 0.75 1.3 c -0.65 0.37 -0.94 0.84 -0.94 1.38 c 0 0.3 0.1 0.44 0.22 0.54 c 0.14 0.11 0.4 0.21 0.78 0.21 H 9 c 0.39 0 0.64 -0.1 0.78 -0.21 c 0.12 -0.1 0.22 -0.25 0.22 -0.54 c 0 -0.54 -0.29 -1 -0.94 -1.38 c -0.66 -0.39 -1.65 -0.62 -2.81 -0.62 s -2.15 0.23 -2.81 0.62 Z M 13.75 3.5 a 3 3 0 1 0 0 6 a 3 3 0 0 0 0 -6 Z m -1.5 3 a 1.5 1.5 0 1 0 3 0 a 1.5 1.5 0 0 0 -3 0 ZM 13.75 12.25 c -0.23 0 -0.45 0.01 -0.68 0.03 a 0.75 0.75 0 1 1 -0.14 -1.49 c 0.27 -0.03 0.54 -0.04 0.82 -0.04 c 1.34 0 2.6 0.27 3.56 0.82 c 0.98 0.56 1.69 1.47 1.69 2.68 c 0 0.7 -0.28 1.3 -0.78 1.71 c -0.48 0.39 -1.1 0.54 -1.72 0.54 h -3 a 0.75 0.75 0 0 1 0 -1.5 h 3 c 0.39 0 0.64 -0.1 0.78 -0.21 c 0.12 -0.1 0.22 -0.25 0.22 -0.54 c 0 -0.54 -0.29 -1 -0.94 -1.38 a 5.77 5.77 0 0 0 -2.81 -0.62 Z"/></svg>
