<svg fill="#5181b8" fill-rule="evenodd" height="20"  width="20" xmlns="http://www.w3.org/2000/svg"><path d = "M 10 7.75 a 1.25 1.25 0 1 1 0 -2.5 a 1.25 1.25 0 0 1 0 2.5 Z M 7.25 6.5 a 2.75 2.75 0 1 1 5.5 0 a 2.75 2.75 0 0 1 -5.5 0 Z m -0.5 7.25 c 0 -0.42 0.23 -0.83 0.8 -1.17 A 4.81 4.81 0 0 1 10 12 c 1.03 0 1.88 0.23 2.45 0.58 c 0.57 0.34 0.8 0.75 0.8 1.17 c 0 0.3 -0.1 0.44 -0.22 0.54 c -0.14 0.11 -0.4 0.21 -0.78 0.21 h -4.5 c -0.39 0 -0.64 -0.1 -0.78 -0.21 c -0.12 -0.1 -0.22 -0.25 -0.22 -0.54 Z M 10 10.5 c -1.22 0 -2.37 0.27 -3.23 0.8 c -0.88 0.53 -1.52 1.37 -1.52 2.45 c 0 0.7 0.28 1.3 0.78 1.71 c 0.48 0.39 1.1 0.54 1.72 0.54 h 4.5 c 0.61 0 1.24 -0.15 1.72 -0.54 c 0.5 -0.4 0.78 -1 0.78 -1.71 c 0 -1.08 -0.64 -1.92 -1.52 -2.45 c -0.86 -0.53 -2 -0.8 -3.23 -0.8 Z m 4 -5.59 c 0.06 -0.4 0.44 -0.7 0.85 -0.64 a 2.5 2.5 0 0 1 -0.35 4.98 a 0.75 0.75 0 0 1 0 -1.5 a 1 1 0 0 0 0.14 -1.99 a 0.75 0.75 0 0 1 -0.63 -0.85 Z M 15.76 10 a 0.75 0.75 0 0 0 0 1.5 c 1.16 0 1.75 0.67 1.75 1.25 c 0 0.22 -0.07 0.41 -0.19 0.55 c -0.1 0.12 -0.24 0.2 -0.46 0.2 a 0.75 0.75 0 0 0 0 1.5 c 1.43 0 2.15 -1.21 2.15 -2.25 c 0 -1.71 -1.6 -2.75 -3.25 -2.75 Z M 5 10.75 a 0.75 0.75 0 0 0 -0.75 -0.75 C 2.61 10 1 11.04 1 12.75 C 1 13.79 1.72 15 3.15 15 a 0.75 0.75 0 0 0 0 -1.5 a 0.57 0.57 0 0 1 -0.47 -0.2 a 0.86 0.86 0 0 1 -0.18 -0.55 c 0 -0.58 0.6 -1.25 1.75 -1.25 c 0.41 0 0.75 -0.34 0.75 -0.75 Z m 0.14 -6.47 a 0.75 0.75 0 0 1 0.22 1.48 a 1 1 0 0 0 0.14 1.99 a 0.75 0.75 0 1 1 0 1.5 a 2.5 2.5 0 0 1 -0.36 -4.97 Z"/></svg>
