<svg fill="#818c99" fill-rule="evenodd" height="24"  width="24" xmlns="http://www.w3.org/2000/svg"><path d = "M 16.72 4.1 a 17.3 17.3 0 0 1 1.31 -0.24 c 0.3 -0.04 0.41 -0.01 0.46 0 c 0.2 0.07 0.38 0.21 0.49 0.4 c 0.02 0.04 0.07 0.14 0.1 0.44 c 0.02 0.3 0.02 0.7 0.02 1.32 L 8.9 8.14 V 7.6 c 0 -0.47 0 -0.78 0.02 -1.02 c 0.01 -0.23 0.04 -0.33 0.07 -0.4 c 0.08 -0.18 0.21 -0.33 0.38 -0.45 c 0.05 -0.04 0.14 -0.09 0.36 -0.15 c 0.23 -0.07 0.53 -0.13 1 -0.23 Z m -9.62 11 h -0.2 c -1.8 0 -3.12 0.45 -4.02 1.21 a 3.54 3.54 0 0 0 -1.28 2.71 a 3.38 3.38 0 0 0 3.38 3.38 c 0.92 0 1.94 -0.38 2.7 -1.28 c 0.77 -0.9 1.22 -2.23 1.22 -4.02 V 9.98 l 10.2 -2.12 v 5.24 h -0.2 c -1.8 0 -3.12 0.45 -4.02 1.21 a 3.54 3.54 0 0 0 -1.28 2.71 a 3.38 3.38 0 0 0 3.38 3.38 c 0.92 0 1.94 -0.38 2.7 -1.28 c 0.77 -0.9 1.22 -2.23 1.22 -4.02 V 6 c 0 -0.57 0 -1.06 -0.03 -1.45 a 2.79 2.79 0 0 0 -0.34 -1.2 a 2.7 2.7 0 0 0 -1.46 -1.2 a 2.79 2.79 0 0 0 -1.25 -0.08 c -0.4 0.05 -0.87 0.15 -1.43 0.26 l -0.04 0.01 l -5.99 1.25 h -0.03 c -0.42 0.1 -0.8 0.17 -1.1 0.26 c -0.31 0.09 -0.62 0.2 -0.9 0.4 c -0.44 0.32 -0.78 0.74 -0.99 1.22 c -0.14 0.32 -0.2 0.64 -0.22 0.98 c -0.02 0.3 -0.02 0.68 -0.02 1.12 v 0.03 Z m 8.95 0.59 c -0.48 0.4 -0.65 0.9 -0.65 1.34 c 0 0.86 0.7 1.57 1.57 1.57 c 0.44 0 0.94 -0.17 1.34 -0.65 c 0.41 -0.47 0.79 -1.34 0.79 -2.85 v -0.2 h -0.2 c -1.5 0 -2.38 0.38 -2.85 0.79 Z M 3.4 19.03 c 0 -0.44 0.17 -0.94 0.65 -1.34 c 0.47 -0.41 1.34 -0.79 2.85 -0.79 h 0.2 v 0.2 c 0 1.5 -0.38 2.38 -0.79 2.85 c -0.4 0.48 -0.9 0.65 -1.33 0.65 c -0.87 0 -1.58 -0.7 -1.58 -1.58 Z"/></svg>
