<svg fill="#818c99" fill-rule="nonzero" height="24"  width="24" xmlns="http://www.w3.org/2000/svg"><path d = "M 12 2.1 c 4.02 0 6.9 3.28 6.9 7.53 v 1.6 c 0 0.23 0.2 0.53 0.72 1.08 l 0.27 0.27 c 1.08 1.1 1.51 1.73 1.51 2.75 c 0 0.44 -0.05 0.79 -0.27 1.2 c -0.45 0.88 -1.42 1.37 -2.87 1.37 h -1.9 c -0.64 2.33 -2.14 3.6 -4.36 3.6 c -2.25 0 -3.75 -1.3 -4.37 -3.67 l 0.02 0.07 H 5.74 c -1.5 0 -2.47 -0.5 -2.9 -1.41 c -0.2 -0.4 -0.24 -0.72 -0.24 -1.16 c 0 -1.02 0.43 -1.65 1.51 -2.75 l 0.27 -0.27 c 0.53 -0.55 0.72 -0.85 0.72 -1.08 v -1.6 C 5.1 5.38 7.99 2.1 12 2.1 Z m 2.47 15.8 H 9.53 c 0.46 1.25 1.25 1.8 2.47 1.8 s 2.01 -0.55 2.47 -1.8 Z M 12 3.9 c -2.96 0 -5.1 2.43 -5.1 5.73 v 1.6 c 0 0.85 -0.39 1.46 -1.23 2.33 l -0.28 0.29 c -0.75 0.75 -0.99 1.11 -0.99 1.48 c 0 0.19 0.01 0.29 0.06 0.38 c 0.1 0.22 0.43 0.39 1.28 0.39 h 12.52 c 0.82 0 1.16 -0.17 1.28 -0.4 c 0.05 -0.1 0.06 -0.2 0.06 -0.37 c 0 -0.37 -0.24 -0.73 -0.99 -1.48 l -0.28 -0.29 c -0.84 -0.87 -1.23 -1.48 -1.23 -2.33 v -1.6 c 0 -3.3 -2.13 -5.73 -5.1 -5.73 Z"/></svg>
