<svg fill="#818c99" fill-rule="evenodd" height="24"  width="24" xmlns="http://www.w3.org/2000/svg"><path d = "M 3 5 C 3 4.29993 3 3.9499 3.13624 3.68251 C 3.25608 3.44731 3.44731 3.25608 3.68251 3.13624 C 3.9499 3 4.29993 3 5 3 C 5.70007 3 6.0501 3 6.31749 3.13624 C 6.55269 3.25608 6.74392 3.44731 6.86376 3.68251 C 7 3.9499 7 4.29993 7 5 C 7 5.70007 7 6.0501 6.86376 6.31749 C 6.74392 6.55269 6.55269 6.74392 6.31749 6.86376 C 6.0501 7 5.70007 7 5 7 C 4.29993 7 3.9499 7 3.68251 6.86376 C 3.44731 6.74392 3.25608 6.55269 3.13624 6.31749 C 3 6.0501 3 5.70007 3 5 Z M 3 12 C 3 11.2999 3 10.9499 3.13624 10.6825 C 3.25608 10.4473 3.44731 10.2561 3.68251 10.1362 C 3.9499 10 4.29993 10 5 10 C 5.70007 10 6.0501 10 6.31749 10.1362 C 6.55269 10.2561 6.74392 10.4473 6.86376 10.6825 C 7 10.9499 7 11.2999 7 12 C 7 12.7001 7 13.0501 6.86376 13.3175 C 6.74392 13.5527 6.55269 13.7439 6.31749 13.8638 C 6.0501 14 5.70007 14 5 14 C 4.29993 14 3.9499 14 3.68251 13.8638 C 3.44731 13.7439 3.25608 13.5527 3.13624 13.3175 C 3 13.0501 3 12.7001 3 12 Z M 3.13624 17.6825 C 3 17.9499 3 18.2999 3 19 C 3 19.7001 3 20.0501 3.13624 20.3175 C 3.25608 20.5527 3.44731 20.7439 3.68251 20.8638 C 3.9499 21 4.29993 21 5 21 C 5.70007 21 6.0501 21 6.31749 20.8638 C 6.55269 20.7439 6.74392 20.5527 6.86376 20.3175 C 7 20.0501 7 19.7001 7 19 C 7 18.2999 7 17.9499 6.86376 17.6825 C 6.74392 17.4473 6.55269 17.2561 6.31749 17.1362 C 6.0501 17 5.70007 17 5 17 C 4.29993 17 3.9499 17 3.68251 17.1362 C 3.44731 17.2561 3.25608 17.4473 3.13624 17.6825 Z M 10 5 C 10 4.29993 10 3.9499 10.1362 3.68251 C 10.2561 3.44731 10.4473 3.25608 10.6825 3.13624 C 10.9499 3 11.2999 3 12 3 C 12.7001 3 13.0501 3 13.3175 3.13624 C 13.5527 3.25608 13.7439 3.44731 13.8638 3.68251 C 14 3.9499 14 4.29993 14 5 C 14 5.70007 14 6.0501 13.8638 6.31749 C 13.7439 6.55269 13.5527 6.74392 13.3175 6.86376 C 13.0501 7 12.7001 7 12 7 C 11.2999 7 10.9499 7 10.6825 6.86376 C 10.4473 6.74392 10.2561 6.55269 10.1362 6.31749 C 10 6.0501 10 5.70007 10 5 Z M 10.1362 10.6825 C 10 10.9499 10 11.2999 10 12 C 10 12.7001 10 13.0501 10.1362 13.3175 C 10.2561 13.5527 10.4473 13.7439 10.6825 13.8638 C 10.9499 14 11.2999 14 12 14 C 12.7001 14 13.0501 14 13.3175 13.8638 C 13.5527 13.7439 13.7439 13.5527 13.8638 13.3175 C 14 13.0501 14 12.7001 14 12 C 14 11.2999 14 10.9499 13.8638 10.6825 C 13.7439 10.4473 13.5527 10.2561 13.3175 10.1362 C 13.0501 10 12.7001 10 12 10 C 11.2999 10 10.9499 10 10.6825 10.1362 C 10.4473 10.2561 10.2561 10.4473 10.1362 10.6825 Z M 10 19 C 10 18.2999 10 17.9499 10.1362 17.6825 C 10.2561 17.4473 10.4473 17.2561 10.6825 17.1362 C 10.9499 17 11.2999 17 12 17 C 12.7001 17 13.0501 17 13.3175 17.1362 C 13.5527 17.2561 13.7439 17.4473 13.8638 17.6825 C 14 17.9499 14 18.2999 14 19 C 14 19.7001 14 20.0501 13.8638 20.3175 C 13.7439 20.5527 13.5527 20.7439 13.3175 20.8638 C 13.0501 21 12.7001 21 12 21 C 11.2999 21 10.9499 21 10.6825 20.8638 C 10.4473 20.7439 10.2561 20.5527 10.1362 20.3175 C 10 20.0501 10 19.7001 10 19 Z M 17.1362 3.68251 C 17 3.9499 17 4.29993 17 5 C 17 5.70007 17 6.0501 17.1362 6.31749 C 17.2561 6.55269 17.4473 6.74392 17.6825 6.86376 C 17.9499 7 18.2999 7 19 7 C 19.7001 7 20.0501 7 20.3175 6.86376 C 20.5527 6.74392 20.7439 6.55269 20.8638 6.31749 C 21 6.0501 21 5.70007 21 5 C 21 4.29993 21 3.9499 20.8638 3.68251 C 20.7439 3.44731 20.5527 3.25608 20.3175 3.13624 C 20.0501 3 19.7001 3 19 3 C 18.2999 3 17.9499 3 17.6825 3.13624 C 17.4473 3.25608 17.2561 3.44731 17.1362 3.68251 Z M 17 12 C 17 11.2999 17 10.9499 17.1362 10.6825 C 17.2561 10.4473 17.4473 10.2561 17.6825 10.1362 C 17.9499 10 18.2999 10 19 10 C 19.7001 10 20.0501 10 20.3175 10.1362 C 20.5527 10.2561 20.7439 10.4473 20.8638 10.6825 C 21 10.9499 21 11.2999 21 12 C 21 12.7001 21 13.0501 20.8638 13.3175 C 20.7439 13.5527 20.5527 13.7439 20.3175 13.8638 C 20.0501 14 19.7001 14 19 14 C 18.2999 14 17.9499 14 17.6825 13.8638 C 17.4473 13.7439 17.2561 13.5527 17.1362 13.3175 C 17 13.0501 17 12.7001 17 12 Z M 17.1362 17.6825 C 17 17.9499 17 18.2999 17 19 C 17 19.7001 17 20.0501 17.1362 20.3175 C 17.2561 20.5527 17.4473 20.7439 17.6825 20.8638 C 17.9499 21 18.2999 21 19 21 C 19.7001 21 20.0501 21 20.3175 20.8638 C 20.5527 20.7439 20.7439 20.5527 20.8638 20.3175 C 21 20.0501 21 19.7001 21 19 C 21 18.2999 21 17.9499 20.8638 17.6825 C 20.7439 17.4473 20.5527 17.2561 20.3175 17.1362 C 20.0501 17 19.7001 17 19 17 C 18.2999 17 17.9499 17 17.6825 17.1362 C 17.4473 17.2561 17.2561 17.4473 17.1362 17.6825 Z"/></svg>
