<svg fill="#818c99" fill-rule="evenodd" height="24"  width="24" xmlns="http://www.w3.org/2000/svg"><path d = "M 16 4 a 5.95 5.95 0 0 0 -3.89 1.7 l -0.12 0.11 l -0.12 -0.11 A 5.96 5.96 0 0 0 7.73 4 A 5.73 5.73 0 0 0 2 9.72 c 0 3.08 1.13 4.55 6.18 8.54 l 2.69 2.1 c 0.66 0.52 1.6 0.52 2.26 0 l 2.36 -1.84 l 0.94 -0.74 c 4.53 -3.64 5.57 -5.1 5.57 -8.06 A 5.73 5.73 0 0 0 16.27 4 Z m 0.27 1.8 a 3.93 3.93 0 0 1 3.93 3.92 v 0.3 c -0.08 2.15 -1.07 3.33 -5.51 6.84 l -2.67 2.08 a 0.04 0.04 0 0 1 -0.04 0 L 9.6 17.1 l -0.87 -0.7 C 4.6 13.1 3.8 11.98 3.8 9.73 A 3.93 3.93 0 0 1 7.73 5.8 c 1.34 0 2.51 0.62 3.57 1.92 a 0.9 0.9 0 0 0 1.4 -0.01 c 1.04 -1.3 2.2 -1.91 3.57 -1.91 Z"/></svg>