<svg fill="#818c99" height="24"  width="24" xmlns="http://www.w3.org/2000/svg"><path d = "M 17.8 3.1 a 4.5 4.5 0 0 1 2.35 0.44 a 3.17 3.17 0 0 1 1.31 1.31 c 0.3 0.57 0.42 1.11 0.44 2.1 V 12 a 0.9 0.9 0 0 1 -1.8 0.11 V 8.9 H 3.9 v 5.9 c 0 0.87 0.06 1.18 0.23 1.5 c 0.13 0.25 0.32 0.44 0.57 0.57 c 0.3 0.16 0.58 0.22 1.31 0.23 H 18.83 l -1.47 -1.46 a 0.9 0.9 0 0 1 -0.08 -1.18 l 0.08 -0.1 a 0.9 0.9 0 0 1 1.18 -0.08 l 0.1 0.08 l 3 3 a 0.9 0.9 0 0 1 0.08 1.18 l -0.08 0.1 l -3 3 a 0.9 0.9 0 0 1 -1.36 -1.18 l 0.08 -0.1 l 1.47 -1.46 H 6.2 c -1.07 0 -1.65 -0.1 -2.21 -0.37 l -0.14 -0.07 a 3.17 3.17 0 0 1 -1.32 -1.31 a 4.2 4.2 0 0 1 -0.44 -2.1 V 7.21 c 0 -1.16 0.11 -1.74 0.44 -2.35 a 3.17 3.17 0 0 1 1.31 -1.32 c 0.57 -0.3 1.11 -0.42 2.1 -0.44 h 0.25 Z m 0 1.8 H 6.2 c -0.88 0 -1.18 0.06 -1.5 0.23 c -0.25 0.13 -0.44 0.32 -0.57 0.57 c -0.16 0.3 -0.22 0.58 -0.23 1.31 v 0.09 h 16.2 v -0.09 c -0.01 -0.73 -0.07 -1.02 -0.23 -1.3 a 1.37 1.37 0 0 0 -0.57 -0.58 c -0.3 -0.16 -0.58 -0.22 -1.31 -0.23 Z"/></svg>
