<svg fill="#818c99" height="24"  width="24" xmlns="http://www.w3.org/2000/svg"><path d = "M 12 7.1 a 0.9 0.9 0 0 1 0.9 0.9 v 3.73 l 2.24 2.23 a 0.9 0.9 0 1 1 -1.28 1.28 l -2.5 -2.5 a 0.9 0.9 0 0 1 -0.26 -0.64 V 8 a 0.9 0.9 0 0 1 0.9 -0.9 ZM 19 5 a 9.87 9.87 0 0 0 -7 -2.9 a 9.87 9.87 0 0 0 -7.1 3 V 3 a 0.9 0.9 0 0 0 -1.8 0 v 4 a 0.9 0.9 0 0 0 0.9 0.9 h 4 a 0.9 0.9 0 0 0 0 -1.8 H 6.45 A 8.07 8.07 0 0 1 12 3.9 c 2.24 0 4.26 0.9 5.73 2.37 A 8.07 8.07 0 0 1 20.1 12 c 0 2.24 -0.9 4.26 -2.37 5.73 A 8.07 8.07 0 0 1 12 20.1 a 8.06 8.06 0 0 1 -5.2 -1.9 a 0.9 0.9 0 0 0 -1.16 1.39 A 9.86 9.86 0 0 0 12 21.9 a 9.87 9.87 0 0 0 9.9 -9.9 c 0 -2.73 -1.1 -5.21 -2.9 -7 Z"/></svg>
