<svg fill="#818c99" height="24"  width="24" xmlns="http://www.w3.org/2000/svg"><path d = "M 3.93 11.7 c 0 -3.63 3.49 -6.8 8.09 -6.8 s 8.08 3.17 8.08 6.8 c 0 3.64 -3.48 6.81 -8.08 6.81 a 9.34 9.34 0 0 1 -3.29 -0.58 a 0.9 0.9 0 0 0 -1 0.26 c -0.67 0.8 -1.8 1.35 -3.51 1.55 c 0.2 -0.44 0.4 -0.9 0.57 -1.37 c 0.3 -0.78 0.53 -1.66 0.53 -2.56 a 0.9 0.9 0 0 0 -0.18 -0.53 a 5.95 5.95 0 0 1 -1.2 -3.57 Z m 8.09 -8.6 c -5.33 0 -9.89 3.73 -9.89 8.6 c 0 1.62 0.5 3.12 1.38 4.39 a 6.22 6.22 0 0 1 -0.4 1.65 c -0.2 0.53 -0.43 1.04 -0.67 1.55 l -0.23 0.52 c -0.39 0.86 0.28 1.83 1.21 1.79 c 2.2 -0.09 4 -0.64 5.25 -1.8 c 1.05 0.34 2.17 0.51 3.35 0.51 c 5.32 0 9.88 -3.73 9.88 -8.6 c 0 -4.88 -4.56 -8.61 -9.88 -8.61 Z M 12 8.9 a 0.6 0.6 0 0 0 -0.57 0.4 a 0.9 0.9 0 1 1 -1.7 -0.6 a 2.4 2.4 0 0 1 4.67 0.8 c 0 1.1 -0.53 1.73 -0.92 2.17 l -0.01 0.02 c -0.4 0.44 -0.54 0.6 -0.58 0.91 a 0.9 0.9 0 0 1 -1.78 -0.2 a 3.2 3.2 0 0 1 1.02 -1.92 c 0.32 -0.36 0.47 -0.57 0.47 -0.98 a 0.6 0.6 0 0 0 -0.6 -0.6 Z m 1 6.6 a 1 1 0 1 1 -2 0 a 1 1 0 0 1 2 0 Z"/></svg>
